HIERARCHY
ROOT Hips
{
	OFFSET 0.000000 0.000000 0.000000
	CHANNELS 6 Xposition Yposition Zposition Zrotation Yrotation Xrotation 
	JOINT LHipJoint
	{
		OFFSET 0.000000 0.000000 0.000000
		CHANNELS 3 Zrotation Yrotation Xrotation
		JOINT LeftUpLeg
		{
			OFFSET 1.363060 -1.794630 0.839290
			CHANNELS 3 Zrotation Yrotation Xrotation
			JOINT LeftLeg
			{
				OFFSET 2.448110 -6.726130 0.000000
				CHANNELS 3 Zrotation Yrotation Xrotation
				JOINT LeftFoot
				{
					OFFSET 2.562200 -7.039590 0.000000
					CHANNELS 3 Zrotation Yrotation Xrotation
					JOINT LeftToeBase
					{
						OFFSET 0.157640 -0.433110 2.322550
						CHANNELS 3 Zrotation Yrotation Xrotation
						End Site
						{
							OFFSET 0.000000 0.000000 0.000000
						}
					}
				}
			}
		}
	}
	JOINT RHipJoint
	{
		OFFSET 0.000000 0.000000 0.000000
		CHANNELS 3 Zrotation Yrotation Xrotation
		JOINT RightUpLeg
		{
			OFFSET -1.305520 -1.794630 0.839290
			CHANNELS 3 Zrotation Yrotation Xrotation
			JOINT RightLeg
			{
				OFFSET -2.542530 -6.985550 0.000000
				CHANNELS 3 Zrotation Yrotation Xrotation
				JOINT RightFoot
				{
					OFFSET -2.568260 -7.056230 0.000000
					CHANNELS 3 Zrotation Yrotation Xrotation
					JOINT RightToeBase
					{
						OFFSET -0.164730 -0.452590 2.363150
						CHANNELS 3 Zrotation Yrotation Xrotation
						End Site
						{
							OFFSET 0.000000 0.000000 0.000000
						}
					}
				}
			}
		}
	}
	JOINT LowerBack
	{
		OFFSET 0.000000 0.000000 0.000000
		CHANNELS 3 Zrotation Yrotation Xrotation
		JOINT Spine
		{
			OFFSET 0.028270 2.035590 -0.193380
			CHANNELS 3 Zrotation Yrotation Xrotation
			JOINT Spine1
			{
				OFFSET 0.056720 2.048850 -0.042750
				CHANNELS 3 Zrotation Yrotation Xrotation
				JOINT Neck
				{
					OFFSET 0.000000 0.000000 0.000000
					CHANNELS 3 Zrotation Yrotation Xrotation
					JOINT Neck1
					{
						OFFSET -0.054170 1.746240 0.172020
						CHANNELS 3 Zrotation Yrotation Xrotation
						JOINT Head
						{
							OFFSET 0.104070 1.761360 -0.123970
							CHANNELS 3 Zrotation Yrotation Xrotation
							End Site
							{
								OFFSET 0.000000 0.000000 0.000000
							}
						}
					}
				}
				JOINT LeftShoulder
				{
					OFFSET 0.000000 0.000000 0.000000
					CHANNELS 3 Zrotation Yrotation Xrotation
					JOINT LeftArm
					{
						OFFSET 3.362410 1.200890 -0.311210
						CHANNELS 3 Zrotation Yrotation Xrotation
						JOINT LeftForeArm
						{
							OFFSET 4.983000 -0.000000 -0.000000
							CHANNELS 3 Zrotation Yrotation Xrotation
							JOINT LeftHand
							{
								OFFSET 3.483560 -0.000000 -0.000000
								CHANNELS 3 Zrotation Yrotation Xrotation
								JOINT LeftFingerBase
								{
									OFFSET 0.000000 0.000000 0.000000
									CHANNELS 3 Zrotation Yrotation Xrotation
									JOINT LeftHandIndex1
									{
										OFFSET 0.715260 -0.000000 -0.000000
										CHANNELS 3 Zrotation Yrotation Xrotation
										End Site
										{
											OFFSET 0.000000 0.000000 0.000000
										}
									}
								}
								JOINT LThumb
								{
									OFFSET 0.000000 0.000000 0.000000
									CHANNELS 3 Zrotation Yrotation Xrotation
									End Site
									{
										OFFSET 0.000000 0.000000 0.000000
									}
								}
							}
						}
					}
				}
				JOINT RightShoulder
				{
					OFFSET 0.000000 0.000000 0.000000
					CHANNELS 3 Zrotation Yrotation Xrotation
					JOINT RightArm
					{
						OFFSET -3.136600 1.374050 -0.404650
						CHANNELS 3 Zrotation Yrotation Xrotation
						JOINT RightForeArm
						{
							OFFSET -5.241900 -0.000000 -0.000000
							CHANNELS 3 Zrotation Yrotation Xrotation
							JOINT RightHand
							{
								OFFSET -3.444170 -0.000000 -0.000000
								CHANNELS 3 Zrotation Yrotation Xrotation
								JOINT RightFingerBase
								{
									OFFSET 0.000000 0.000000 0.000000
									CHANNELS 3 Zrotation Yrotation Xrotation
									JOINT RightHandIndex1
									{
										OFFSET -0.622530 -0.000000 -0.000000
										CHANNELS 3 Zrotation Yrotation Xrotation
										End Site
										{
											OFFSET 0.000000 0.000000 0.000000
										}
									}
								}
								JOINT RThumb
								{
									OFFSET 0.000000 0.000000 0.000000
									CHANNELS 3 Zrotation Yrotation Xrotation
									End Site
									{
										OFFSET 0.000000 0.000000 0.000000
									}
								}
							}
						}
					}
				}
			}
		}
	}
}
MOTION
Frames: 4
Frame Time: 0.008333
1.864295 18.130960 2.091241 -4.353255 -5.382144 6.801884 -7.130648 -0.212835 0.346109 -1.177909 -12.691590 -28.451145 -0.274175 5.066143 15.104648 -1.904513 8.735799 4.901708 0.711200 -5.389600 -15.023300 4.233063 -1.348112 3.468341 24.278709 3.178182 10.982532 -0.005608 -2.509976 9.151172 -0.321263 2.330995 4.085094 -0.257100 3.262300 -9.009900 6.967502 2.067743 0.068197 1.856389 2.607631 0.346245 -3.791620 1.378560 1.013930 -3.951385 -1.500232 -15.361759 -0.170133 -1.437179 7.352645 0.007600 -0.950600 5.954400 -0.729120 -2.221433 1.027624 -57.627415 10.548339 51.852851 77.955225 -56.975368 -56.305874 0.319228 -1.853073 -4.161790 27.475186 5.537295 3.934800 -7.125000 0.000000 0.000000 0.433100 38.577000 -0.068500 0.139897 2.193249 -0.028146 81.454522 21.082176 36.156099 -34.185820 42.707731 -14.849841 0.816851 -0.631797 -7.297155 -24.220063 34.132761 -14.835900 7.125000 0.000000 0.000000 4.318300 7.304300 4.845300 
1.870311 18.095552 2.299053 -4.666405 -5.672958 6.749390 -7.092159 -0.198936 0.407635 -1.317045 -12.243142 -28.324610 -0.157668 5.391201 15.954934 -1.835906 8.720618 6.197837 0.868700 -5.942600 -16.618100 4.197658 -1.344138 3.451807 24.520438 3.402799 11.358839 -0.075924 -2.834322 10.047990 -0.358815 2.629926 4.630493 -0.140200 2.413400 -6.649600 7.077810 2.136248 -0.009406 1.958772 2.693571 0.375957 -3.741413 1.422871 1.080463 -4.081288 -1.569239 -15.627114 -0.094311 -1.486883 7.560570 0.047800 -0.975800 6.076500 -0.730171 -2.199187 1.012542 -57.831474 11.001410 51.574857 78.301137 -57.048692 -56.625396 0.322592 -1.855858 -3.659794 27.382428 5.698350 3.998300 -7.125000 0.000000 0.000000 0.327100 38.750400 -0.050400 0.135046 2.178725 -0.032095 81.282240 20.427218 36.411543 -34.515454 42.955818 -15.099159 0.817389 -0.619832 -7.423151 -24.095075 33.900066 -14.669400 7.125000 0.000000 0.000000 4.341500 7.027100 4.853200 
1.876821 18.079278 2.506964 -4.511533 -5.746206 6.840010 -7.108184 -0.177296 0.387324 -1.656179 -12.578544 -28.380340 -0.002179 5.713979 16.896386 -1.927310 9.281683 7.592812 0.813600 -5.755800 -16.077400 4.184270 -1.358891 3.470717 24.303303 3.667542 11.592497 -0.124937 -3.081833 10.699447 -0.366265 2.618006 5.335061 -0.230500 3.090000 -8.529300 6.688298 2.134135 -0.097224 1.990991 2.685875 0.236757 -3.494406 1.405861 0.937547 -4.266086 -1.656578 -15.555753 -0.157039 -1.567935 7.542073 0.049000 -1.028200 6.059600 -0.731632 -2.182827 1.001604 -58.020143 11.434423 51.584363 78.363371 -57.061138 -56.684871 0.284155 -1.864408 -3.175041 27.926826 5.140306 3.812900 -7.125000 0.000000 0.000000 0.845000 38.181300 -0.141900 0.137693 2.152081 -0.038543 81.054824 19.540586 36.596604 -34.757805 43.139381 -15.283891 0.816665 -0.616252 -7.502871 -23.930845 33.889269 -14.558700 7.125000 0.000000 0.000000 4.429400 6.973900 4.948400 
1.896152 18.093185 2.734503 -3.700243 -5.791987 6.751352 -7.211964 -0.114925 0.346526 -2.450973 -13.616495 -28.165527 0.172171 6.005841 17.862360 -2.216877 10.397540 8.234848 0.615000 -5.018900 -13.962400 4.181906 -1.391757 3.519508 23.234426 3.580337 11.688776 -0.184115 -3.403730 11.512687 -0.423734 2.967804 6.057183 -0.583300 4.890200 -13.595700 5.874760 2.111524 -0.367086 1.769650 2.627011 0.221153 -3.273131 1.358419 1.035029 -4.346014 -1.643042 -15.600673 -0.150438 -1.529206 7.531695 0.065700 -1.012400 6.064400 -0.737681 -2.181494 0.996850 -58.142110 11.744046 51.638560 78.601523 -57.111391 -56.905567 0.252806 -1.873944 -3.095470 28.548040 4.550106 3.612300 -7.125000 0.000000 0.000000 1.426000 37.580900 -0.260500 0.139850 2.123271 -0.043142 81.011659 18.818598 36.700325 -34.756593 43.141588 -15.283919 0.817450 -0.627191 -7.197804 -24.096393 34.128802 -14.753800 7.125000 0.000000 0.000000 4.382300 7.263800 4.914800 
